<svg width="497" height="403" viewBox="0 0 497 403" fill="none" xmlns="http://www.w3.org/2000/svg">
<g clip-path="url(#clip0_31_44)">
<mask id="mask0_31_44" style="mask-type:luminance" maskUnits="userSpaceOnUse" x="0" y="0" width="497" height="403">
<path d="M497 0H0V403H497V0Z" fill="white"/>
</mask>
<g mask="url(#mask0_31_44)">
<path d="M405 32C405 30.8954 405.897 29.9988 407.001 30.0102C429.276 30.2389 445.059 34.3188 454.35 42.25C463.916 50.1833 468.7 63.4833 468.7 82.15V159.85C468.7 169.65 470.45 176.65 473.95 180.85C477.403 184.735 483.153 186.823 491.199 187.115C492.302 187.155 493.2 188.045 493.2 189.15V211.75C493.2 212.855 492.302 213.746 491.199 213.783C483.153 214.058 477.403 216.03 473.95 219.7C470.45 223.667 468.7 230.55 468.7 240.35V318.05C468.7 336.717 463.916 350.017 454.35 357.95C445.059 365.881 429.276 369.961 407.001 370.19C405.897 370.201 405 369.305 405 368.2V347.35C405 346.245 405.897 345.352 407.001 345.332C417.86 345.131 425.709 343.27 430.55 339.75C435.683 336.25 438.25 330.183 438.25 321.55V237.9C438.25 226 440.233 217.6 444.2 212.7C447.533 208.812 452.481 205.438 459.046 202.578C460.794 201.817 460.778 199.129 459.028 198.373C452.683 195.633 447.857 192.242 444.55 188.2C440.35 182.833 438.25 174.2 438.25 162.3V78.65C438.25 70.0167 435.683 63.95 430.55 60.45C425.709 56.9294 417.86 55.0688 407.001 54.8682C405.897 54.8478 405 53.9546 405 52.85V32Z" fill="white"/>
<path d="M91.5535 52.85C91.5535 53.9546 90.6565 54.8478 89.5522 54.8682C78.6939 55.0688 70.8444 56.9294 66.0035 60.45C60.8702 63.95 58.3035 70.0167 58.3035 78.65V162.3C58.3035 174.2 56.2035 182.833 52.0035 188.2C48.6965 192.242 43.8705 195.633 37.5257 198.373C35.775 199.129 35.7584 201.818 37.5048 202.584C44.0251 205.442 48.858 208.814 52.0035 212.7C56.2035 217.6 58.3035 226 58.3035 237.9V321.55C58.3035 330.183 60.8702 336.25 66.0035 339.75C70.8444 343.27 78.6939 345.131 89.5522 345.332C90.6565 345.352 91.5535 346.245 91.5535 347.35V368.2C91.5535 369.305 90.6566 370.201 89.5521 370.19C67.2772 369.961 51.4943 365.882 42.2035 357.95C32.6369 350.017 27.8535 336.717 27.8535 318.05V240.35C27.8535 230.55 25.9869 223.667 22.2535 219.7C19.0162 216.031 13.3834 214.059 5.35507 213.784C4.25115 213.746 3.35352 212.855 3.35352 211.75V189.15C3.35352 188.045 4.25118 187.155 5.35502 187.115C13.3833 186.823 19.0162 184.735 22.2535 180.85C25.9869 176.65 27.8535 169.65 27.8535 159.85V82.15C27.8535 63.4833 32.6369 50.1833 42.2035 42.25C51.4943 34.3188 67.2772 30.2389 89.5521 30.0102C90.6566 29.9988 91.5535 30.8954 91.5535 32V52.85Z" fill="white"/>
<path d="M243.5 147.5C243.5 148.605 242.605 149.5 241.5 149.5H224.5C223.395 149.5 222.5 148.605 222.5 147.5V144.75C222.5 142.25 222.333 140.667 222 140C221.833 139.167 221 138.167 219.5 137C218 135.833 216.833 135.167 216 135C215.167 134.667 213.25 134.5 210.25 134.5H148.25C145.25 134.5 143.333 134.667 142.5 135C141.667 135.167 140.5 135.833 139 137C137.5 138.167 136.583 139.167 136.25 140C136.083 140.667 136 142.25 136 144.75V264.25C136 266.75 136.083 268.417 136.25 269.25C136.583 269.917 137.5 270.833 139 272C140.5 273.167 141.667 273.917 142.5 274.25C143.333 274.417 145.25 274.5 148.25 274.5H210.25C213.25 274.5 215.167 274.417 216 274.25C216.833 273.917 218 273.167 219.5 272C221 270.833 221.833 269.917 222 269.25C222.333 268.417 222.5 266.75 222.5 264.25V261.5C222.5 260.395 223.395 259.5 224.5 259.5H241.5C242.605 259.5 243.5 260.395 243.5 261.5V269.5C243.5 274.5 241.5 278.667 237.5 282L231.5 287C227.5 290.333 223.5 292 219.5 292H139C135 292 131 290.333 127 287L121 282C117 278.667 115 274.5 115 269.5V139.5C115 134.5 117 130.333 121 127L127 122C131 118.667 135 117 139 117H219.5C223.5 117 227.5 118.667 231.5 122L237.5 127C241.5 130.333 243.5 134.5 243.5 139.5V147.5Z" fill="white"/>
<path d="M287 222V290C287 291.105 286.105 292 285 292H268C266.895 292 266 291.105 266 290V121C266 118.791 267.791 117 270 117H358.5C362.5 117 366.5 118.667 370.5 122L376.5 127C380.5 130.333 382.5 134.5 382.5 139.5V199.5C382.5 204.5 380.5 208.667 376.5 212L370.5 217C366.5 220.333 362.5 222 358.5 222H287ZM287 134.5V204.5H349.25C352.25 204.5 354.167 204.417 355 204.25C355.833 203.917 357 203.167 358.5 202C360 200.833 360.833 199.917 361 199.25C361.333 198.417 361.5 196.75 361.5 194.25V144.75C361.5 142.25 361.333 140.667 361 140C360.833 139.167 360 138.167 358.5 137C357 135.833 355.833 135.167 355 135C354.167 134.667 352.25 134.5 349.25 134.5H287Z" fill="white"/>
</g>
</g>
<defs>
<clipPath id="clip0_31_44">
<rect width="497" height="403" fill="white"/>
</clipPath>
</defs>
</svg>
